<svg xmlns="http://www.w3.org/2000/svg">

    <symbol id="logo" viewBox="0 0 189 32">
        <g clip-path="url(#clip0_3225:6131)">
            <path d="M0 31.9229V8.42285L7 0.922852H31V24.9229L24 31.9229H0Z" fill="white"/>
            <path d="M24.8006 31.8599L31 25.6736V2.7886L24.8027 8.97309V22.5788H22.5348L16.8228 14.7456V22.5788H14.1825V12.6666H10.6347V23.1124L1.86951 31.8599L1.86577 31.8599L1.86733 31.8615L24.8006 31.8599Z" fill="#E30615"/>
            <path d="M0.00280037 30.0001L0 29.9973V7.11045L6.20038 0.922852H29.133L29.1341 0.923939L22.1627 7.88133V18.0381L16.451 10.2052H4.41115V12.6666H7.9602V22.0555L0.00280037 29.9973V30.0001Z" fill="#E30615"/>
            <path d="M42.9158 13.213H39.1055V10.2078H50.2475V13.213H46.4375V22.5814H42.9161V13.213H42.9158Z" fill="white"/>
            <path d="M52.0977 10.208H62.313V13.1234H55.5815V14.9992H61.6776V17.7044H55.5815V19.6656H62.4042V22.582H52.0977V10.208Z" fill="white"/>
            <path d="M68.1992 16.2892L64.0246 10.2083H68.0721L70.3217 13.6903L72.5912 10.2083H76.5456L72.3735 16.254L76.7283 22.5819H72.6811L70.2484 18.8526L67.7997 22.5819H63.8438L68.1992 16.2892Z" fill="white"/>
            <path d="M78.3945 10.208H81.9149V14.8395H86.4336V10.208H89.9539V22.5816H86.4336V17.879H81.9149V22.5816H78.3945V10.208Z" fill="white"/>
            <path d="M92.0664 16.3925C92.0664 12.8384 95.0061 9.95728 98.9263 9.95728C102.845 9.95728 105.748 12.8038 105.748 16.3925C105.748 19.9459 102.809 22.8274 98.8901 22.8274C94.9687 22.8277 92.0664 19.9802 92.0664 16.3925ZM102.155 16.3925C102.155 14.6065 100.831 13.0501 98.8898 13.0501C96.9647 13.0501 95.677 14.5707 95.677 16.3925C95.677 18.1784 97.0025 19.732 98.9259 19.732C100.866 19.7323 102.155 18.2133 102.155 16.3925Z" fill="white"/>
            <path d="M107.879 10.208H111.401V14.8395H115.918V10.208H119.44V22.5816H115.918V17.879H111.401V22.5816H107.879V10.208Z" fill="white"/>
            <path d="M122.18 10.208H125.665V17.1721L130.583 10.208H133.866V22.5816H130.382V15.6172L125.464 22.5816H122.18V10.208Z" fill="white"/>
            <path d="M136.605 10.208H140.125V15.229L144.498 10.208H148.672L143.864 15.5284L148.834 22.582H144.608L141.414 17.9866L140.125 19.3821V22.5823H136.605V10.208Z" fill="white"/>
            <path d="M148.863 16.3925C148.863 12.8384 151.802 9.95728 155.721 9.95728C159.641 9.95728 162.545 12.8038 162.545 16.3925C162.545 19.9459 159.604 22.8274 155.686 22.8274C151.766 22.8277 148.863 19.9802 148.863 16.3925ZM158.95 16.3925C158.95 14.6065 157.628 13.0501 155.686 13.0501C153.761 13.0501 152.474 14.5707 152.474 16.3925C152.474 18.1784 153.797 19.732 155.721 19.732C157.663 19.7323 158.95 18.2133 158.95 16.3925Z" fill="white"/>
            <path d="M178.273 10.208H181.793V14.0958H183.717C186.766 14.0958 188.998 15.5112 188.998 18.3025C188.998 20.9738 187.002 22.582 183.899 22.582H178.273V10.208ZM183.627 19.7008C184.787 19.7008 185.477 19.1879 185.477 18.2158C185.477 17.3498 184.787 16.7839 183.644 16.7839H181.793V19.7008H183.627Z" fill="white"/>
            <path d="M165.662 10.2083V15.6365C165.662 16.9194 165.529 18.7752 164.66 19.4316C164.252 19.7391 163.579 19.9749 163.152 19.9749V22.8922H163.486C164.704 22.8922 166.067 22.4154 166.591 22.0914C168.715 20.7782 168.977 18.2803 168.977 15.4588V13.2132H172.015V22.5816H175.536V10.2083H165.662Z" fill="white"/>
        </g>
        <defs>
            <clipPath id="clip0_3225:6131">
                <rect width="189" height="30.9386" fill="white" transform="translate(0 0.922852)"/>
            </clipPath>
        </defs>
    </symbol>

    <symbol id="learn-1" viewBox="0 0 80 80" fill="none">
        <path d="M50.7365 18H37.0802C36.6474 18 36.2637 18.2785 36.1295 18.69L29.2817 39.69C29.0709 40.3363 29.5526 41 30.2324 41H34.5813C35.2295 41 35.7064 41.6072 35.5528 42.237L31.8455 57.4368C31.5962 58.459 32.8916 59.1234 33.5763 58.3246L50.4395 38.6508C50.9955 38.0021 50.5346 37 49.6803 37H44.4725C43.7291 37 43.2456 36.2177 43.5781 35.5528L51.6309 19.4472C51.9633 18.7823 51.4798 18 50.7365 18Z" fill="#3879E6"/>
        <path fill-rule="evenodd" clip-rule="evenodd" d="M40.3532 70C55.5996 70 68.1896 58.6266 70.1018 43.9012C70.168 43.3914 70.5995 43 71.1136 43C71.7024 43 72.1685 43.5079 72.094 44.092C70.0848 59.8327 56.6399 72 40.3532 72C24.0664 72 10.6215 59.8327 8.61235 44.092C8.53779 43.5079 9.0039 43 9.59275 43C10.1068 43 10.5383 43.3914 10.6045 43.9012C12.5167 58.6266 25.1067 70 40.3532 70ZM10.1304 34C10.606 34 11.0197 33.6636 11.1271 33.2003C14.2075 19.9072 26.1233 10 40.3532 10C54.583 10 66.4988 19.9072 69.5793 33.2003C69.6866 33.6636 70.1003 34 70.5759 34C71.2029 34 71.6841 33.4287 71.5439 32.8176C68.284 18.6028 55.5568 8 40.3532 8C25.1495 8 12.4223 18.6028 9.16238 32.8176C9.02223 33.4287 9.50337 34 10.1304 34Z" fill="#3879E6"/>
        <path d="M74.1851 30.7205L65.962 31.5313C65.1672 31.6096 64.7804 32.5422 65.2866 33.1601L70.0062 38.922C70.4584 39.474 71.3266 39.3884 71.6623 38.7587L75.1657 32.186C75.5414 31.4812 74.98 30.6421 74.1851 30.7205Z" fill="#3879E6"/>
        <path d="M6.0137 46.9277L14.2164 45.9316C15.0093 45.8353 15.3749 44.8942 14.855 44.2879L10.0065 38.6339C9.542 38.0922 8.67591 38.1974 8.35455 38.8345L5.00029 45.4846C4.6406 46.1977 5.22083 47.024 6.0137 46.9277Z" fill="#3879E6"/>
    </symbol>

    <symbol id="learn-2" viewBox="0 0 70 70" fill="none">
        <path d="M35.0007 50.3708L53.0257 61.2499L48.2423 40.7458L64.1673 26.9499L43.1965 25.1708L35.0007 5.83325L26.8048 25.1708L5.83398 26.9499L21.759 40.7458L16.9757 61.2499L35.0007 50.3708Z" fill="#3879E6"/>
    </symbol>

    <symbol id="learn-3" viewBox="0 0 65 65" fill="none">
        <path opacity="0.5" d="M56.875 16.25H51.4583V40.625H16.25V46.0417C16.25 47.5313 17.4688 48.75 18.9583 48.75H48.75L59.5833 59.5833V18.9583C59.5833 17.4688 58.3646 16.25 56.875 16.25Z" fill="#3879E6"/>
        <path d="M46.041 32.5001V8.12508C46.041 6.6355 44.8223 5.41675 43.3327 5.41675H8.12435C6.63477 5.41675 5.41602 6.6355 5.41602 8.12508V46.0418L16.2494 35.2084H43.3327C44.8223 35.2084 46.041 33.9897 46.041 32.5001Z" fill="#3879E6"/>
    </symbol>

    <symbol id="learn-4" viewBox="0 0 80 80" fill="none">
        <path d="M39.966 6.66675C21.566 6.66675 6.66602 21.6001 6.66602 40.0001C6.66602 58.4001 21.566 73.3334 39.966 73.3334C58.3994 73.3334 73.3327 58.4001 73.3327 40.0001C73.3327 21.6001 58.3994 6.66675 39.966 6.66675ZM63.066 26.6668H53.2327C52.166 22.5001 50.6327 18.5001 48.6327 14.8001C54.766 16.9001 59.866 21.1668 63.066 26.6668ZM39.9994 13.4667C42.766 17.4668 44.9327 21.9001 46.366 26.6668H33.6327C35.066 21.9001 37.2327 17.4668 39.9994 13.4667ZM14.1994 46.6668C13.666 44.5334 13.3327 42.3001 13.3327 40.0001C13.3327 37.7001 13.666 35.4668 14.1994 33.3334H25.466C25.1994 35.5334 24.9994 37.7334 24.9994 40.0001C24.9994 42.2668 25.1994 44.4668 25.466 46.6668H14.1994ZM16.9327 53.3334H26.766C27.8327 57.5001 29.366 61.5001 31.366 65.2001C25.2327 63.1001 20.1327 58.8668 16.9327 53.3334ZM26.766 26.6668H16.9327C20.1327 21.1334 25.2327 16.9001 31.366 14.8001C29.366 18.5001 27.8327 22.5001 26.766 26.6668ZM39.9994 66.5334C37.2327 62.5334 35.066 58.1001 33.6327 53.3334H46.366C44.9327 58.1001 42.766 62.5334 39.9994 66.5334ZM47.7994 46.6668H32.1994C31.8994 44.4668 31.666 42.2668 31.666 40.0001C31.666 37.7334 31.8994 35.5001 32.1994 33.3334H47.7994C48.0994 35.5001 48.3327 37.7334 48.3327 40.0001C48.3327 42.2668 48.0994 44.4668 47.7994 46.6668ZM48.6327 65.2001C50.6327 61.5001 52.166 57.5001 53.2327 53.3334H63.066C59.866 58.8334 54.766 63.1001 48.6327 65.2001ZM54.5327 46.6668C54.7994 44.4668 54.9994 42.2668 54.9994 40.0001C54.9994 37.7334 54.7994 35.5334 54.5327 33.3334H65.7994C66.3327 35.4668 66.666 37.7001 66.666 40.0001C66.666 42.3001 66.3327 44.5334 65.7994 46.6668H54.5327Z" fill="#3879E6"/>
    </symbol>

    <symbol id="learn-5" viewBox="0 0 80 80" fill="none">
        <g clip-path="url(#clip0_3857:7351)">
            <path opacity="0.5" d="M65.4627 22.3526C65.186 21.5436 64.4255 21 63.5704 21H24.798C23.4263 21 22.4617 22.3495 22.9057 23.6474L34.5373 57.6474C34.814 58.4564 35.5745 59 36.4296 59H72.404C75.1475 59 77.0767 56.301 76.1886 53.7052L65.4627 22.3526Z" fill="#3879E6"/>
            <path d="M20.5959 18C15.8794 18 11.6878 21.0068 10.1761 25.4745L0.0518223 55.3975C-1.04501 58.6393 1.3658 62 4.78807 62H46.4041C51.1206 62 55.3122 58.9932 56.8239 54.5255L66.9482 24.6025C68.045 21.3608 65.6342 18 62.2119 18H20.5959Z" fill="#3879E6" stroke="#EFF3F7" stroke-width="6"/>
        </g>
        <defs>
            <clipPath id="clip0_3857:7351">
                <rect width="80" height="80" fill="white"/>
            </clipPath>
        </defs>
    </symbol>

    <symbol id="micro-arrow" viewBox="0 0 23 14" fill="none" xmlns="http://www.w3.org/2000/svg">
        <path d="M20.5945 7.00012L1.59448 7.00012" stroke="white" fill="none" stroke-width="1.4" stroke-linecap="square" stroke-linejoin="round"/>
        <path d="M15.5945 1.00012L21.5945 7.00012L15.5945 13.0001" fill="none" stroke="white" stroke-width="1.4" stroke-linecap="square"/>
    </symbol>

    <symbol id="time" viewBox="0 0 28 28" fill="none">
        <circle cx="14" cy="14" r="10" fill="none" stroke="inherit" stroke-width="2"/>
        <path d="M14 9V16H19" fill="none" stroke="inherit" stroke-width="2"/>
    </symbol>

    <symbol id="about-mask" viewBox="0 0 25.91 25.91"
         shape-rendering="geometricPrecision" text-rendering="geometricPrecision"
         image-rendering="optimizeQuality" fill-rule="evenodd" clip-rule="evenodd">
        <path d="M25.91 0v25.91H0c1.2 0 2.34-.48 3.19-1.32l21.4-21.4c.84-.85 1.32-1.99 1.32-3.19z" fill="inherit"/>
    </symbol>

    <symbol id="about-arrow" width="45" height="45" viewBox="0 0 45 45" fill="none">
        <path d="M32.998 11.7908L10.6062 34.1824" stroke="inherit" fill="none" stroke-width="3" stroke-linecap="square" stroke-linejoin="round"/>
        <path d="M12.9637 10.6122L34.1769 10.6122L34.1769 31.8255" fill="none" stroke="inherit" stroke-width="3" stroke-linecap="square"/>
    </symbol>

    <symbol id="game-arrow" viewBox="0 0 23 22" fill="none">
        <path d="M20 10.6899L1 10.6899" fill="none" stroke="white" stroke-width="2" stroke-linecap="square" stroke-linejoin="round"/>
        <path d="M12 1.68994L21 10.6899L12 19.6899" fill="none" stroke="white" stroke-width="2" stroke-linecap="square"/>
    </symbol>

    <symbol id="player-prev" width="24" height="15" viewBox="0 0 24 15" fill="none">
        <path opacity="0.8" fill-rule="evenodd" clip-rule="evenodd" d="M12 7.44069V0.821655L0 7.70044L12 14.5792V7.96018L23.5469 14.5792V0.821655L12 7.44069Z" fill="#FCFEFF"/>
    </symbol>

    <symbol id="player-next" width="24" height="15" viewBox="0 0 24 15" fill="none">
        <path opacity="0.8" fill-rule="evenodd" clip-rule="evenodd" d="M11.5469 7.44069V0.821655L23.5469 7.70044L11.5469 14.5792V7.96018L0 14.5792V0.821655L11.5469 7.44069Z" fill="#FCFEFF"/>
    </symbol>

    <symbol id="player-pause" width="13" height="18" viewBox="0 0 13 18" fill="none">
        <rect width="3" height="18" rx="1" fill="white"/>
        <rect x="10" width="3" height="18" rx="1" fill="white"/>
    </symbol>

    <symbol id="player-play" width="14" height="17" viewBox="0 0 14 17" fill="none">
        <path d="M13.4865 7.90397C14.1567 8.28818 14.1568 9.25491 13.4865 9.63912L1.49731 16.5116C0.83065 16.8937 -7.73513e-07 16.4124 -7.39682e-07 15.644L-1.34545e-07 1.89908C-1.00715e-07 1.13066 0.83065 0.649361 1.49731 1.03151L13.4865 7.90397Z" fill="#FCFEFF"/>
    </symbol>

    <symbol id="social-vk" viewBox="0 0 50 50" fill="none">
        <path fill-rule="evenodd" clip-rule="evenodd" d="M12 0C5.37258 0 0 5.37258 0 12V38C0 44.6274 5.37258 50 12 50H38C44.6274 50 50 44.6274 50 38V12C50 5.37258 44.6274 0 38 0H12ZM40.5224 31.4997C40.4365 31.3652 39.9111 30.5775 37.3831 28.3711C36.2616 27.3932 35.6786 26.8965 35.6216 26.3454C35.5439 25.5954 36.4404 24.7445 38.2793 22.4429C40.2207 20.0098 40.9869 17.7678 40.8038 17.1135C40.6785 16.6665 39.9624 16.6667 39.1894 16.6668L39.1449 16.6668C38.6723 16.6668 37.1961 16.6768 36.0073 16.6847C35.2061 16.6901 34.5354 16.6946 34.3907 16.6946C34.1963 16.6946 34.1094 16.6936 34.0291 16.7162C33.9609 16.7352 33.8975 16.7712 33.7771 16.8391C33.5206 16.9835 33.3556 17.2757 33.3556 17.2757C33.3556 17.2757 32.5567 19.9332 31.552 21.5352C29.4366 24.9126 28.2478 24.6549 27.9008 24.4438C27.2008 24.0185 27.221 22.8471 27.2381 21.8591C27.2407 21.7116 27.2432 21.5681 27.2432 21.4319C27.2432 20.8183 27.2567 20.2871 27.2684 19.8264C27.3193 17.8298 27.3364 17.1606 26.0702 16.8735C25.5549 16.7568 25.174 16.6791 23.853 16.6668C22.1557 16.6513 21.1714 16.7324 20.4481 17.049C19.9068 17.299 19.482 17.7367 19.7362 17.769C20.0504 17.8089 20.7702 18.0656 21.1465 18.5478C21.6347 19.171 21.5929 20.5698 21.5929 20.5698C21.5929 20.5698 21.898 23.8272 20.9623 24.3049C20.3216 24.6349 19.4435 24.5571 17.5563 21.493C16.5901 19.9232 15.8319 17.4612 15.8319 17.4612C15.8319 17.4612 15.6917 17.1301 15.4397 16.9568C15.1346 16.7457 14.7097 16.6668 14.7097 16.6668L10.1952 16.668C10.1952 16.668 9.51601 16.6324 9.26627 16.9102C9.04591 17.1579 9.24819 17.5645 9.24819 17.5645C9.24819 17.5645 12.6734 25.6414 16.5788 29.651C19.3396 32.4873 22.1071 33.3317 24.6576 33.3317H26.1131C26.8962 33.3317 27.2432 33.1539 27.2432 32.7573V32.7271C27.2431 31.6262 27.243 30.3516 28.2094 30.0676C29.0007 29.8345 30.0202 30.6748 31.0888 31.5556C31.5889 31.9677 32.0997 32.3888 32.603 32.7129C33.5715 33.3439 34.7049 33.3317 34.7049 33.3317H39.3607C39.3607 33.3317 41.57 33.1328 40.5224 31.4997Z" fill="white"/>
    </symbol>

    <symbol id="social-yt" viewBox="0 0 50 50" fill="none">
        <path fill-rule="evenodd" clip-rule="evenodd" d="M12 0C5.37258 0 0 5.37258 0 12V38C0 44.6274 5.37258 50 12 50H38C44.6274 50 50 44.6274 50 38V12C50 5.37258 44.6274 0 38 0H12ZM36.1642 13.922C37.3467 14.2454 38.2789 15.1988 38.5952 16.4082C39.1699 18.602 39.1699 24.5841 39.1699 24.5841C39.1699 24.5841 39.1699 30.5663 38.5952 32.7601C38.2789 33.9695 37.348 34.9229 36.1642 35.2463C34.0192 35.8341 25.4199 35.8341 25.4199 35.8341C25.4199 35.8341 16.8207 35.8341 14.6757 35.2463C13.4932 34.9229 12.5609 33.9695 12.2447 32.7601C11.6699 30.5663 11.6699 24.5841 11.6699 24.5841C11.6699 24.5841 11.6699 18.602 12.2447 16.4082C12.5609 15.1988 13.4932 14.2454 14.6757 13.922C16.8207 13.3341 25.4199 13.3341 25.4199 13.3341C25.4199 13.3341 34.0192 13.3341 36.1642 13.922ZM23.7012 20.3218C23.2433 20.0518 22.6699 20.3893 22.6699 20.9307V28.2376C22.6699 28.779 23.2433 29.1179 23.7012 28.8465L29.8887 25.193C30.3466 24.923 30.3466 24.2452 29.8887 23.9752L23.7012 20.3218Z" fill="white"/>
    </symbol>

    <symbol id="social-ok" viewBox="0 0 50 50" fill="none">
        <path fill-rule="evenodd" clip-rule="evenodd" d="M12 0C5.37258 0 0 5.37258 0 12V38C0 44.6274 5.37258 50 12 50H38C44.6274 50 50 44.6274 50 38V12C50 5.37258 44.6274 0 38 0H12ZM33.0241 17.0841C33.0241 12.7119 29.433 9.16748 25.0033 9.16748C20.5735 9.16748 16.9824 12.7119 16.9824 17.0841C16.9824 21.4564 20.5735 25.0008 25.0033 25.0008C29.433 25.0008 33.0241 21.4564 33.0241 17.0841ZM22.5726 14.685C23.2172 14.0487 24.0916 13.6913 25.0033 13.6913C25.9149 13.6913 26.7893 14.0487 27.4339 14.685C28.0786 15.3213 28.4408 16.1843 28.4408 17.0841C28.4408 17.984 28.0786 18.847 27.4339 19.4833C26.7893 20.1195 25.9149 20.477 25.0033 20.477C24.0916 20.477 23.2172 20.1195 22.5726 19.4833C21.9279 18.847 21.5658 17.984 21.5658 17.0841C21.5658 16.1843 21.9279 15.3213 22.5726 14.685ZM19.1644 28.1021C18.7866 27.9059 18.3902 27.8222 18.0074 27.8326C16.859 27.8639 15.8366 28.7467 15.8366 30.0106C15.8366 30.9165 16.3468 31.7525 17.1615 32.1687C18.1194 32.6561 19.1409 33.0318 20.1917 33.3372L16.508 36.973C15.6131 37.8563 15.6131 39.2882 16.508 40.1715C17.4017 41.0548 18.8548 41.0548 19.7485 40.1715L25.0033 34.985L30.258 40.1715C30.7048 40.6137 31.2916 40.8341 31.8783 40.8341C32.4649 40.8341 33.0517 40.6137 33.4985 40.1715C34.3934 39.2882 34.3934 37.8563 33.4985 36.973L29.8149 33.3372C30.8656 33.0318 31.8871 32.6539 32.8451 32.1665C33.6597 31.7514 34.1699 30.9165 34.1699 30.0106C34.1699 28.3255 32.3534 27.3172 30.8421 28.1021C29.0981 29.0091 27.1127 29.5246 25.0033 29.5246C22.8938 29.5246 20.9084 29.0091 19.1644 28.1021Z" fill="white"/>
    </symbol>

    <symbol id="social-im" viewBox="0 0 50 50" fill="none">
        <path fill-rule="evenodd" clip-rule="evenodd" d="M12 0C5.37258 0 0 5.37258 0 12V38C0 44.6274 5.37258 50 12 50H38C44.6274 50 50 44.6274 50 38V12C50 5.37258 44.6274 0 38 0H12ZM39.7275 13.0425C41.2578 13.0425 42.4984 11.8019 42.4984 10.2716C42.4984 8.74136 41.2578 7.50081 39.7275 7.50081C38.1973 7.50081 36.9567 8.74136 36.9567 10.2716C36.9567 11.8019 38.1973 13.0425 39.7275 13.0425ZM32.6817 24.9175C32.6817 29.1148 29.2791 32.5175 25.0817 32.5175C20.8843 32.5175 17.4817 29.1148 17.4817 24.9175C17.4817 20.7201 20.8843 17.3175 25.0817 17.3175C29.2791 17.3175 32.6817 20.7201 32.6817 24.9175ZM39.3317 24.9175C39.3317 32.7875 32.9518 39.1675 25.0817 39.1675C17.2116 39.1675 10.8317 32.7875 10.8317 24.9175C10.8317 17.0474 17.2116 10.6675 25.0817 10.6675C32.9518 10.6675 39.3317 17.0474 39.3317 24.9175Z" fill="white"/>
    </symbol>

    <symbol id="social-tt" viewBox="0 0 50 50" fill="none">
        <path fill-rule="evenodd" clip-rule="evenodd" d="M12 0C5.37258 0 0 5.37258 0 12V38C0 44.6274 5.37258 50 12 50H38C44.6274 50 50 44.6274 50 38V12C50 5.37258 44.6274 0 38 0H12ZM37.5671 23.2786C37.8258 23.2786 38.0812 23.2632 38.3333 23.2401V18.1062C34.3088 17.8204 31.0895 14.7049 30.6697 10.7572H26.2099C26.2099 10.7572 26.1633 32.193 26.1633 32.2974C26.1633 34.9402 23.8056 37.0223 21.136 37.0223C18.4663 37.0223 16.303 34.8808 16.303 32.2381C16.303 29.5953 18.4663 27.4538 21.136 27.4538C21.2846 27.4538 21.4284 27.4733 21.5722 27.4927C21.6218 27.4994 21.6714 27.5061 21.7212 27.5121V22.8927C21.6751 22.8898 21.629 22.8866 21.5829 22.8835C21.4348 22.8732 21.2867 22.863 21.136 22.863C15.9066 22.863 11.6667 27.0602 11.6667 32.237C11.6667 37.4137 15.9066 41.6109 21.136 41.6109C26.3654 41.6109 30.6053 37.4137 30.6053 32.237V19.554C32.0945 21.7956 34.6542 23.2786 37.5671 23.2786Z" fill="white"/>
    </symbol>

    <symbol id="social-sp" viewBox="0 0 50 50" fill="none">
        <path fill-rule="evenodd" clip-rule="evenodd" d="M12 0C5.37258 0 0 5.37258 0 12V38C0 44.6274 5.37258 50 12 50H38C44.6274 50 50 44.6274 50 38V12C50 5.37258 44.6274 0 38 0H12ZM8.80081 24.607L6.66667 23.3062L16.1636 13.3333L18.7246 14.9593L14.4563 26.7751L27.1545 13.5501L30.249 15.393L27.1545 24.607L37.8252 13.5501L41.6667 15.935L32.9167 40L29.0752 37.5068L34.3039 23.3062L23.7398 34.1463L20.4319 32.0867L24.3801 21.2466L16.377 29.4851L11.4685 26.2331L14.0295 19.187L8.80081 24.607Z" fill="white"/>
    </symbol>

    <symbol id="social-dz" viewBox="0 0 50 50" fill="none">
        <path fill-rule="evenodd" clip-rule="evenodd" d="M12 0C5.37258 0 0 5.37258 0 12V38C0 44.6274 5.37258 50 12 50H38C44.6274 50 50 44.6274 50 38V12C50 5.37258 44.6274 0 38 0H12ZM22.6481 11.7136C23.0325 11.68 23.4696 11.6712 24.168 11.6688V16.2486C24.168 20.6206 20.6237 24.1649 16.2517 24.1649H11.6948C11.697 23.4532 11.7057 23.0107 11.7397 22.6221C12.2472 16.8208 16.8468 12.2212 22.6481 11.7136ZM11.7397 27.3805C11.7056 26.9908 11.6969 26.5469 11.6947 25.8315H16.2505C20.6232 25.8315 24.168 29.3763 24.168 33.749V38.3338C23.4696 38.3315 23.0325 38.3226 22.6481 38.289C16.8468 37.7814 12.2472 33.1819 11.7397 27.3805ZM27.4065 38.289C27.0127 38.3235 26.5635 38.3319 25.8346 38.334V33.7474C25.8346 29.3756 29.3787 25.8315 33.7505 25.8315H38.3599C38.3577 26.5469 38.3491 26.9908 38.315 27.3805C37.8075 33.1819 33.2079 37.7814 27.4065 38.289ZM33.7505 24.1649L38.3599 24.1649C38.3577 23.4532 38.349 23.0107 38.315 22.6221C37.8075 16.8208 33.2079 12.2212 27.4065 11.7136C27.0127 11.6792 26.5635 11.6707 25.8346 11.6687V16.249C25.8346 20.6208 29.3787 24.1649 33.7505 24.1649Z" fill="white"/>
    </symbol>

    <symbol id="social-tm" viewBox="0 0 50 50" fill="none">
        <path fill-rule="evenodd" clip-rule="evenodd" d="M12 0C5.37258 0 0 5.37258 0 12V38C0 44.6274 5.37258 50 12 50H38C44.6274 50 50 44.6274 50 38V12C50 5.37258 44.6274 0 38 0H12ZM9.54736 22.1898L36.3587 11.7565C37.6031 11.3028 38.6899 12.0629 38.2867 13.962L38.289 13.9596L33.7239 35.6658C33.3856 37.2047 32.4795 37.5789 31.212 36.8539L24.26 31.6829L20.9068 34.9431C20.5361 35.3173 20.2232 35.633 19.5049 35.633L19.9985 28.4928L32.8827 16.7451C33.4435 16.247 32.7576 15.9663 32.0184 16.4621L16.0961 26.5797L9.2322 24.4186C7.74217 23.9415 7.70972 22.9148 9.54736 22.1898Z" fill="white"/>
    </symbol>

    <symbol id="social-fb"  viewBox="0 0 50 50" fill="none">
        <path fill-rule="evenodd" clip-rule="evenodd" d="M12 0C5.37258 0 0 5.37258 0 12V38C0 44.6274 5.37258 50 12 50H38C44.6274 50 50 44.6274 50 38V12C50 5.37258 44.6274 0 38 0H12ZM33.3268 14.008H30.284C27.8981 14.008 27.437 15.2096 27.4356 16.9649V21.1489H32.8199L32.0825 27.222H27.437V42.5016H21.5014V27.2206H16.6602V21.1475H21.5014V16.3627C21.5014 11.1637 24.5067 8.33496 28.8939 8.33496C30.9965 8.33496 32.8019 8.50152 33.3268 8.57555V14.008Z" fill="white"/>
    </symbol>

    <symbol id="social-yq" viewBox="0 0 50 50" fill="none">
        <path fill-rule="evenodd" clip-rule="evenodd" d="M0 12C0 5.37258 5.37258 0 12 0H38C44.6274 0 50 5.37258 50 12V38C50 44.6274 44.6274 50 38 50H12C5.37258 50 0 44.6274 0 38V12ZM35.9818 38.9168C35.7135 38.2204 35.5174 38.0276 35.3768 37.8894C35.1274 37.6442 35.0528 37.5708 35.0601 35.1628L35.0638 20.9824C35.0374 15.1529 30.2966 12.0756 25.4388 12C25.6919 12.5111 25.8696 12.7405 25.9941 12.9011C26.0489 12.9719 26.0935 13.0294 26.1295 13.0917C26.285 13.3604 26.2838 13.7198 26.2774 15.628L26.2774 15.6406C26.2749 16.6913 26.2757 17.7403 26.2765 18.7898V18.7903C26.277 19.3153 26.2774 19.8405 26.2774 20.3661V29.8211C26.2774 30.4069 26.2588 30.9808 26.2408 31.5392V31.5392C26.1617 33.9823 26.0923 36.1276 27.6297 37.6693C29.093 39.1399 31.8165 39.0463 34.3994 38.9575C34.9372 38.939 35.4688 38.9207 35.9818 38.9168ZM22.1728 29.7014C22.2915 29.8238 22.4557 29.9931 22.6806 30.5471C19.685 30.5509 17.6338 29.3789 15.8924 28.0369C12.5758 25.4851 11.7069 18.5933 15.5487 14.8166C16.9577 13.433 19.1977 12.1363 21.8458 12.0115C22.0122 14.1882 21.9599 18.8982 21.9165 22.7948C21.8999 24.292 21.8846 25.6692 21.8835 26.7364C21.8785 29.3979 21.9326 29.4537 22.1728 29.7014Z" fill="white"/>
    </symbol>

    <symbol id="slick" viewBox="0 0 182 182" fill="inherit">
        <path fill-rule="evenodd" clip-rule="evenodd" d="M182 0V182H0C16.5724 182 32.5528 175.489 44.0943 163.652L163.652 44.0943C175.194 32.5528 182 16.5724 182 0V0Z" fill="inherit"/>
    </symbol>

    <symbol id="close-modal" viewBox="0 0 25 25" fill="none">
        <path d="M22.7273 25L25 22.7273L16.1869 13.9142C15.4059 13.1332 15.4059 11.8668 16.1869 11.0858L25 2.27273L22.7273 0L13.9142 8.81306C13.1332 9.59411 11.8668 9.59411 11.0858 8.81306L2.27273 0L0 2.27273L8.81306 11.0858C9.59411 11.8668 9.59411 13.1332 8.81306 13.9142L0 22.7273L2.27273 25L11.0858 16.1869C11.8668 15.4059 13.1332 15.4059 13.9142 16.1869L22.7273 25Z" fill="white"/>
    </symbol>

    <symbol id="success" viewBox="0 0 40 40" fill="none">
        <rect width="40" height="40" rx="20" fill="#64C16D"/>
        <path d="M10.2847 21.7145L15.4276 26.8573L29.7133 12.5716" stroke="white" stroke-width="3.85714"/>
    </symbol>

    <symbol id="error" viewBox="0 0 40 40" fill="none">
        <rect width="40" height="40" rx="20" fill="#E93016"/>
        <path d="M28.5712 11.4284L11.4283 28.5712" stroke="white" fill="none" stroke-width="3.85714"/>
        <path d="M11.4288 11.4284L28.5717 28.5712" stroke="white" fill="none" stroke-width="3.85714"/>
    </symbol>

    <symbol id="test-true" viewBox="0 0 22 22" fill="none">
        <circle cx="11" cy="11" r="11" fill="#C4C4C4"/>
        <circle cx="11" cy="11" r="11" fill="#3CBC48"/>
        <path d="M5 11L8.6 15L17 7" fill="none" stroke="white" stroke-width="3"/>
    </symbol>

    <symbol id="test-false" viewBox="0 0 22 22" fill="none">
        <circle cx="11" cy="11" r="11" fill="#C4C4C4"/>
        <circle cx="11" cy="11" r="11" fill="#FF3C3C"/>
        <path d="M6.59961 15L15.9996 6" stroke="white" fill="none" stroke-width="3"/>
        <path d="M16 15L6.6 6" stroke="white" fill="none" stroke-width="3"/>
    </symbol>

    <symbol id="history-test-arrow" viewBox="0 0 23 22" fill="none">
        <path d="M20 11L1 11" fill="none" stroke="#23282A" stroke-width="2" stroke-linecap="square" stroke-linejoin="round"/>
        <path d="M20 11L1 11" fill="none" stroke="black" stroke-opacity="0.2" stroke-width="2" stroke-linecap="square" stroke-linejoin="round"/>
        <path d="M12 2L21 11L12 20" fill="none" stroke="#23282A" stroke-width="2" stroke-linecap="square"/>
        <path d="M12 2L21 11L12 20" fill="none" stroke="black" stroke-opacity="0.2" stroke-width="2" stroke-linecap="square"/>
    </symbol>

    <symbol id="game-success" viewBox="0 0 32 32" fill="none">
        <circle cx="16" cy="16" r="16" fill="#2BDE0E"/>
        <path fill-rule="evenodd" clip-rule="evenodd" d="M25.4292 8.30138C25.873 8.63015 25.9662 9.25641 25.6374 9.70018L15.0189 24.033C14.6667 24.5083 13.981 24.5757 13.5431 24.1779L6.78178 18.0371C6.38166 17.6737 6.34273 17.0581 6.69387 16.6472L7.34416 15.8862C7.70323 15.466 8.3351 15.4168 8.7549 15.7763L13.3178 19.6845C13.7683 20.0702 14.4535 19.9815 14.7908 19.4937L22.9249 7.73117C23.2463 7.26641 23.8887 7.16006 24.3427 7.49644L25.4292 8.30138Z" fill="white"/>
    </symbol>

    <symbol id="game-error" viewBox="0 0 32 32" fill="none">
        <circle cx="16" cy="16" r="16" fill="#FF4747"/>
        <path fill-rule="evenodd" clip-rule="evenodd" d="M15.3037 18.5746C15.6917 18.198 16.3088 18.198 16.6968 18.5746L21.5594 23.2946C21.9421 23.6661 22.5489 23.6719 22.9386 23.3077L23.6962 22.5999C24.1137 22.2098 24.12 21.5497 23.7099 21.1517L18.9186 16.5008C18.514 16.1081 18.514 15.4585 18.9186 15.0657L23.7107 10.4142C24.1207 10.0162 24.1144 9.35609 23.6969 8.96595L22.9394 8.2581C22.5497 7.89398 21.9428 7.89975 21.5601 8.27122L16.6968 12.992C16.3088 13.3686 15.6917 13.3686 15.3037 12.992L10.4404 8.27122C10.0577 7.89975 9.45084 7.89398 9.06115 8.2581L8.3036 8.96595C7.88607 9.35609 7.87979 10.0162 8.28982 10.4142L13.0819 15.0657C13.4866 15.4585 13.4866 16.1081 13.0819 16.5008L8.29058 21.1517C7.88055 21.5497 7.88683 22.2098 8.30436 22.5999L9.06191 23.3077C9.4516 23.6719 10.0585 23.6661 10.4411 23.2946L15.3037 18.5746Z" fill="white"/>
    </symbol>

</svg>
